<svg height="464pt" viewBox="-31 0 463 464" width="464pt" xmlns="http://www.w3.org/2000/svg"><path d="m16.5 0h272c8.835938 0 16 7.164062 16 16v432c0 8.835938-7.164062 16-16 16h-272c-8.835938 0-16-7.164062-16-16v-432c0-8.835938 7.164062-16 16-16zm0 0" fill="#546977"/><path d="m48.5 48h208c8.835938 0 16 7.164062 16 16v288c0 8.835938-7.164062 16-16 16h-208c-8.835938 0-16-7.164062-16-16v-288c0-8.835938 7.164062-16 16-16zm0 0" fill="#cfdfe8"/><path d="m120.5 400h64v32h-64zm0 0" fill="#cfdfe8"/><path d="m352.5 144h48v320h-48zm0 0" fill="#546977"/><path d="m352.5 144 24-72 24 72zm0 0" fill="#fdbd40"/><path d="m352.5 368h48v96h-48zm0 0" fill="#cfdfe8"/><g fill="#394d5c"><path d="m152.5 320h16v16h-16zm0 0"/><path d="m72.5 320v-40h-16v56h80v-16zm0 0"/></g></svg>