<svg height="464pt" viewBox="0 -47 464 463" width="464pt" xmlns="http://www.w3.org/2000/svg"><path d="m62.226562 56.96875 237.585938 237.589844-33.9375 33.941406-237.589844-237.589844zm0 0" fill="#e9686a"/><path d="m62.222656 56.972656-62.222656-28.289062 28.289062 62.234375zm0 0" fill="#394d5c"/><path d="m128 56.796875 56.296875-56.296875 247.703125 247.703125-56.296875 56.296875zm0 0" fill="#d3843d"/><path d="m0 160.5h464v160c0 26.511719-21.492188 48-48 48h-368c-26.507812 0-48-21.488281-48-48zm0 0" fill="#238892"/><g fill="#cfdfe8"><path d="m178.171875 39.367188 22.628906-22.625 11.3125 11.3125-22.625 22.628906zm0 0"/><path d="m200.804688 61.988281 22.628906-22.628906 11.3125 11.3125-22.625 22.628906zm0 0"/><path d="m212.117188 95.9375 33.941406-33.941406 11.3125 11.3125-33.941406 33.941406zm0 0"/><path d="m246.0625 107.242188 22.628906-22.628907 11.3125 11.316407-22.625 22.625zm0 0"/><path d="m268.6875 129.878906 22.628906-22.625 11.3125 11.3125-22.628906 22.628906zm0 0"/><path d="m0 208.5h464v32h-464zm0 0"/></g><path d="m64 264.5h-40v32h16v-16h24zm0 0" fill="#fff"/></svg>