<svg height="464pt" viewBox="0 0 464 464" width="464pt" xmlns="http://www.w3.org/2000/svg"><path d="m144 0h176v240h-176zm0 0" fill="#f6bf9b"/><g fill="#394d5c"><path d="m144 0h176v64h-176zm0 0"/><path d="m184 104h16v16h-16zm0 0"/><path d="m264 104h16v16h-16zm0 0"/></g><path d="m144 176c-17.671875 0-32-17.910156-32-40s14.328125-40 32-40zm0 0" fill="#efa47b"/><path d="m320 96c17.671875 0 32 17.910156 32 40s-14.328125 40-32 40zm0 0" fill="#efa47b"/><path d="m224 138.464844h16v36.917968h-16zm0 0" fill="#394d5c"/><path d="m208 464-176-17.0625v-238.9375l176 16zm0 0" fill="#238892"/><path d="m432 446.9375-176 17.0625v-240l176-16zm0 0" fill="#238892"/><path d="m208 224h48v240h-48zm0 0" fill="#cfdfe8"/><path d="m0 288h80v80h-80zm0 0" fill="#f6bf9b"/><path d="m384 288h80v80h-80zm0 0" fill="#f6bf9b"/></svg>